<svg width="1024" height="1024" viewBox="0 0 1024 1024" fill="none" xmlns="http://www.w3.org/2000/svg">
  <rect width="1024" height="1024" rx="224" fill="#F8FBFF"/>
  <path d="M864 650.182C864 758.627 776.081 846.545 667.636 846.545H482.909C374.464 846.545 286.545 758.627 286.545 650.182V384H667.636C776.081 384 864 471.919 864 580.364V650.182Z" fill="#68C4FF"/>
  <path d="M768 128C847.529 128 912 192.471 912 272V416C912 495.529 847.529 560 768 560H624C544.471 560 480 495.529 480 416V272C480 192.471 544.471 128 624 128H768Z" fill="#0C79D8"/>
  <path d="M400 544C479.529 544 544 608.471 544 688V832C544 911.529 479.529 976 400 976H256C176.471 976 112 911.529 112 832V688C112 608.471 176.471 544 256 544H400Z" fill="#0C79D8"/>
  <path d="M512 512H245.818C137.373 512 49.4545 424.081 49.4545 315.636V245.818C49.4545 137.373 137.373 49.4545 245.818 49.4545H315.636C424.081 49.4545 512 137.373 512 245.818V512Z" fill="#2E9EFF"/>
</svg>
